<svg width="1360" height="4940" viewBox="0 0 1360 4940" fill="none" xmlns="http://www.w3.org/2000/svg">
<path d="M217.771 69.2167C216.511 63.7539 215.831 57.3893 215.842 50.0133C215.944 -18.5965 268.403 -1.26308 299.59 19.1469C319.896 32.4357 298.347 89.8077 244.017 40.6629C176.104 -20.7682 159.782 149.449 238.285 138.088C301.087 128.999 279.293 61.4646 262.808 29.1907C252.723 16.7721 264.404 12.4522 238.285 64.4913C201.587 137.608 229.248 252 309.499 259.5C389.75 267 391 372 432 432.5C473 493 658.519 458.372 647.999 506.304C634.54 567.631 594.301 566.147 577.058 543.397C563.264 525.197 569.176 473.003 613.514 486.026C632.07 490.478 645.635 502.347 647.999 534C650.364 565.653 730.778 590.212 826.999 608.5C1058.5 652.5 1466 664 1409 890C1360.09 1083.93 1483.5 2177.14 1483.5 2479C1483.5 2769 290 2395.5 396.5 2923C503 3450.5 1281.92 2629.79 1232.5 3235C1194 3706.5 115 3070.5 14 3481.5C-22.5 3545 21.1001 3739.6 117.5 3828C238 3938.5 291 3960 354.5 3976.5C477.864 4008.56 1018.5 3998.17 1381.5 3975C1426.67 3966.83 1519 3973.1 1527 4063.5C1486.5 4186 1387.58 4275.23 873.5 4302.5C553 4319.5 582.073 4494 582.073 4676.5C588.073 4848 543.557 4785.38 547.114 4835M217.771 69.2167C228.234 114.568 278.663 97.776 305.322 81.6839C264.354 95.7933 182.536 112.108 183.002 64.4913C183.585 4.97049 363.811 55.1408 305.322 121.7C258.531 174.947 235.111 113.254 229.249 75.752C225.816 60.7712 213.743 37.5461 192.912 64.4913C166.874 98.1728 234.689 156.487 290.555 113.153C335.247 78.4867 260.654 69.4178 217.771 69.2167ZM547.114 4835C559.111 4796.5 527.617 4774.82 591.117 4779.5C654.617 4784.18 635.617 4830 634.617 4852C633.617 4874 622.117 4893.5 591.117 4888.5C560.117 4883.5 515.117 4781.39 591.117 4780.39C667.117 4779.39 690.617 4897 634.617 4929.5C578.617 4962 554.623 4905 562.123 4861.5C569.623 4818 481.196 4819 588.196 4800.5C695.196 4782 705.189 4930 581.189 4923C548.233 4921.14 546.954 4863.07 542.303 4838.5M547.114 4835C547.361 4838.45 541.695 4835.29 542.303 4838.5M542.303 4838.5C542.303 4960 702.209 4756.96 624.721 4896.25C581.189 4974.5 543.314 4726 651.314 4861.5C654.096 4864.99 648.961 4841.82 651.314 4845M651.314 4845C740.345 4965.24 516.713 4870.16 577.117 4838.5C626.717 4812.5 651.915 4830.83 651.314 4845Z" stroke="#D2E9E3"/>
</svg>
